<?xml version="1.0"?>
<svg width="450" height="190" xmlns="http://www.w3.org/2000/svg" xmlns:svg="http://www.w3.org/2000/svg">
 <defs>
  <style>.cls-1{fill:#00788a;}.cls-2{fill:#f05133;}</style>
 </defs>
 <title>RALlogo_CMYK</title>
 <g>
  <title>Layer 1</title>
  <path fill="black" id="svg_21" d="m422.310004,139.189998c-14.46,20.54 -59.09,10.14 -59.09,10.14l0,-101.61l-42.37,0l0,127.27l-40,-132.81l-15.15,7.65l-13.49,0l-15.7,-7.65l-38.36,128.7l-19,-45.82c16.19,-7.39 24.18,-18.18 24.18,-36.17c0,-13.39 -5.39,-25.58 -16.79,-32.78c-10.2,-6.79 -23.39,-8.39 -35.38,-8.39l-34.3,0c3.6,-8.11 8.19,-18.07 17.84,-17.42c7.2,0.13 14.21,0.94 18.91,-3s7.62,-5.81 6,-12.72c-3.52,-10.48 -17.37,-10.44 -26.05,-7.21c-17.8,7 -21.26,23.53 -20.84,40.35l-23.82,0c-4.43,-20.31 -13.84,-38.58 -37.25,-42.47c-12.14,-1.81 -26.94,5.92 -28.63,20.42c-0.26,9.42 4.3,14.42 12.33,15.31s12.23,-1.33 21.53,-3.48c10.66,-3 18.24,3.63 24.55,11.64l0,135.69l42.57,0l0,-52.37l13.19,0l20,52.36l71,0l8.39,-27l40,0l7.79,27l99.61,0l0,0.08s6.69,0 11.7,0s34.3,-9.83 26.63,-45.71zm-282.9,-36.1l-15.42,0l0,-26.19l17,0c4,0 8.39,0 12,1.8a12.55,12.55 0 0 1 6.59,11.19c-0.01,11.78 -11,13.2 -20.17,13.2zm108.85,-42a5.1,5.1 0 1 1 -5.1,5.1a5.1,5.1 0 0 1 5.07,-5.12l0.03,0.02zm-4.72,66.79l14.62,-39.77l11.2,39.77l-25.85,0l0.03,0zm26.77,-56.59a5.1,5.1 0 1 1 5.1,-5.1a5.1,5.1 0 0 1 -5.13,5.09l0.03,0.01z" class="cls-2"/>
 </g>
</svg>